<svg xmlns="http://www.w3.org/2000/svg" xmlns:xlink="http://www.w3.org/1999/xlink" width="150" zoomAndPan="magnify" viewBox="0 0 112.5 112.499997" height="150" preserveAspectRatio="xMidYMid meet" version="1.0"><defs><clipPath id="0b62b32054"><path d="M 1.96875 1.96875 L 110.71875 1.96875 L 110.71875 110.71875 L 1.96875 110.71875 Z M 1.96875 1.96875 " clip-rule="nonzero"/></clipPath></defs><g clip-path="url(#0b62b32054)"><path fill="#bef3f5" d="M 55.5 91.5625 L 36.339844 72.402344 L 36.339844 85.925781 L 61.132812 110.71875 L 79.164062 110.71875 L 92.6875 97.195312 L 79.164062 97.195312 L 75.21875 101.140625 L 65.078125 101.140625 Z M 91.5625 57.1875 L 72.402344 76.347656 L 85.925781 76.347656 L 110.71875 51.554688 L 110.71875 34.085938 L 97.195312 20 L 97.195312 33.523438 L 101.140625 38.03125 L 101.140625 47.609375 Z M 57.1875 21.125 L 76.347656 40.285156 L 76.347656 26.761719 L 51.554688 1.96875 L 34.085938 1.96875 L 20 16.054688 L 33.523438 16.054688 L 38.03125 11.546875 L 47.609375 11.546875 Z M 21.125 55.5 L 40.285156 36.339844 L 26.761719 36.339844 L 1.96875 61.132812 L 1.96875 79.164062 L 16.054688 92.6875 L 16.054688 79.164062 L 11.546875 75.21875 L 11.546875 65.078125 Z M 21.125 55.5 " fill-opacity="1" fill-rule="evenodd"/><path fill="#33bbcf" d="M 80.855469 81.980469 L 53.246094 81.980469 L 63.386719 91.5625 L 98.320312 91.5625 L 110.71875 79.164062 L 110.71875 59.441406 L 101.140625 69.023438 L 101.140625 75.21875 L 94.378906 81.980469 Z M 81.980469 32.394531 L 81.980469 59.441406 L 91.5625 49.863281 L 91.5625 14.363281 L 79.164062 1.96875 L 59.441406 1.96875 L 69.023438 11.546875 L 75.21875 11.546875 L 81.980469 18.871094 Z M 32.394531 30.707031 L 59.441406 30.707031 L 49.863281 21.125 L 14.363281 21.125 L 1.96875 34.085938 L 1.96875 53.246094 L 11.546875 43.664062 L 11.546875 38.03125 L 18.871094 30.707031 Z M 30.707031 80.855469 L 30.707031 53.246094 L 21.125 63.386719 L 21.125 98.320312 L 34.085938 110.71875 L 53.246094 110.71875 L 43.664062 101.140625 L 38.03125 101.140625 L 30.707031 94.378906 Z M 30.707031 80.855469 " fill-opacity="1" fill-rule="evenodd"/></g></svg>