<svg xmlns="http://www.w3.org/2000/svg" xmlns:xlink="http://www.w3.org/1999/xlink" width="400" zoomAndPan="magnify" viewBox="0 0 300 112.499997" height="150" preserveAspectRatio="xMidYMid meet" version="1.0"><defs><g/><clipPath id="42bd38ef8d"><path d="M 2.09375 1.242188 L 111.855469 1.242188 L 111.855469 111.003906 L 2.09375 111.003906 Z M 2.09375 1.242188 " clip-rule="nonzero"/></clipPath></defs><g clip-path="url(#42bd38ef8d)"><path fill="#bef3f5" d="M 56.121094 91.667969 L 36.785156 72.332031 L 36.785156 85.980469 L 61.808594 111.003906 L 80.007812 111.003906 L 93.65625 97.355469 L 80.007812 97.355469 L 76.027344 101.335938 L 65.789062 101.335938 Z M 92.519531 56.976562 L 73.183594 76.3125 L 86.832031 76.3125 L 111.855469 51.289062 L 111.855469 33.65625 L 98.207031 19.441406 L 98.207031 33.089844 L 102.1875 37.636719 L 102.1875 47.308594 Z M 57.828125 20.578125 L 77.164062 39.914062 L 77.164062 26.265625 L 52.140625 1.242188 L 34.511719 1.242188 L 20.292969 15.457031 L 33.941406 15.457031 L 38.492188 10.910156 L 48.160156 10.910156 Z M 21.429688 55.269531 L 40.765625 35.933594 L 27.117188 35.933594 L 2.09375 60.957031 L 2.09375 79.15625 L 16.3125 92.804688 L 16.3125 79.15625 L 11.761719 75.171875 L 11.761719 64.9375 Z M 21.429688 55.269531 " fill-opacity="1" fill-rule="evenodd"/><path fill="#33bbcf" d="M 81.714844 82 L 53.847656 82 L 64.082031 91.667969 L 99.34375 91.667969 L 111.855469 79.15625 L 111.855469 59.25 L 102.1875 68.917969 L 102.1875 75.171875 L 95.363281 82 Z M 82.851562 31.953125 L 82.851562 59.25 L 92.519531 49.582031 L 92.519531 13.753906 L 80.007812 1.242188 L 60.101562 1.242188 L 69.769531 10.910156 L 76.027344 10.910156 L 82.851562 18.300781 Z M 32.804688 30.246094 L 60.101562 30.246094 L 50.433594 20.578125 L 14.605469 20.578125 L 2.09375 33.65625 L 2.09375 52.992188 L 11.761719 43.324219 L 11.761719 37.636719 L 19.15625 30.246094 Z M 31.097656 80.859375 L 31.097656 52.992188 L 21.429688 63.230469 L 21.429688 98.492188 L 34.511719 111.003906 L 53.847656 111.003906 L 44.179688 101.335938 L 38.492188 101.335938 L 31.097656 94.511719 Z M 31.097656 80.859375 " fill-opacity="1" fill-rule="evenodd"/></g><g fill="#f4f6fc" fill-opacity="1"><g transform="translate(128.780784, 57.251978)"><g><path d="M 15.734375 0 L 6.5 -10.6875 L 6.5 0 L 2.578125 0 L 2.578125 -23.875 L 6.5 -23.875 L 6.5 -12.984375 L 15.765625 -23.875 L 20.6875 -23.875 L 10.3125 -11.921875 L 20.859375 0 Z M 15.734375 0 "/></g></g></g><g fill="#f4f6fc" fill-opacity="1"><g transform="translate(152.731474, 57.251978)"><g><path d="M 1.265625 -9.546875 C 1.265625 -11.453125 1.660156 -13.132812 2.453125 -14.59375 C 3.242188 -16.0625 4.320312 -17.203125 5.6875 -18.015625 C 7.050781 -18.828125 8.554688 -19.234375 10.203125 -19.234375 C 11.691406 -19.234375 12.988281 -18.941406 14.09375 -18.359375 C 15.207031 -17.773438 16.097656 -17.050781 16.765625 -16.1875 L 16.765625 -18.9375 L 20.71875 -18.9375 L 20.71875 0 L 16.765625 0 L 16.765625 -2.8125 C 16.097656 -1.925781 15.191406 -1.179688 14.046875 -0.578125 C 12.898438 0.015625 11.597656 0.3125 10.140625 0.3125 C 8.515625 0.3125 7.023438 -0.101562 5.671875 -0.9375 C 4.316406 -1.78125 3.242188 -2.953125 2.453125 -4.453125 C 1.660156 -5.953125 1.265625 -7.648438 1.265625 -9.546875 Z M 16.765625 -9.484375 C 16.765625 -10.785156 16.492188 -11.914062 15.953125 -12.875 C 15.421875 -13.84375 14.71875 -14.578125 13.84375 -15.078125 C 12.976562 -15.585938 12.039062 -15.84375 11.03125 -15.84375 C 10.019531 -15.84375 9.078125 -15.59375 8.203125 -15.09375 C 7.335938 -14.601562 6.632812 -13.882812 6.09375 -12.9375 C 5.5625 -11.988281 5.296875 -10.859375 5.296875 -9.546875 C 5.296875 -8.242188 5.5625 -7.097656 6.09375 -6.109375 C 6.632812 -5.128906 7.34375 -4.378906 8.21875 -3.859375 C 9.101562 -3.347656 10.039062 -3.09375 11.03125 -3.09375 C 12.039062 -3.09375 12.976562 -3.34375 13.84375 -3.84375 C 14.71875 -4.351562 15.421875 -5.09375 15.953125 -6.0625 C 16.492188 -7.039062 16.765625 -8.179688 16.765625 -9.484375 Z M 16.765625 -9.484375 "/></g></g></g><g fill="#f4f6fc" fill-opacity="1"><g transform="translate(178.228482, 57.251978)"><g><path d="M 4.5625 -21.4375 C 3.851562 -21.4375 3.257812 -21.675781 2.78125 -22.15625 C 2.300781 -22.644531 2.0625 -23.242188 2.0625 -23.953125 C 2.0625 -24.660156 2.300781 -25.253906 2.78125 -25.734375 C 3.257812 -26.210938 3.851562 -26.453125 4.5625 -26.453125 C 5.25 -26.453125 5.832031 -26.210938 6.3125 -25.734375 C 6.800781 -25.253906 7.046875 -24.660156 7.046875 -23.953125 C 7.046875 -23.242188 6.800781 -22.644531 6.3125 -22.15625 C 5.832031 -21.675781 5.25 -21.4375 4.5625 -21.4375 Z M 6.5 -18.9375 L 6.5 0 L 2.578125 0 L 2.578125 -18.9375 Z M 6.5 -18.9375 "/></g></g></g><g fill="#f4f6fc" fill-opacity="1"><g transform="translate(189.499403, 57.251978)"><g><path d="M 21.640625 -23.875 L 21.640625 0 L 17.734375 0 L 17.734375 -10.4375 L 6.5 -10.4375 L 6.5 0 L 2.578125 0 L 2.578125 -23.875 L 6.5 -23.875 L 6.5 -13.640625 L 17.734375 -13.640625 L 17.734375 -23.875 Z M 21.640625 -23.875 "/></g></g></g><g fill="#f4f6fc" fill-opacity="1"><g transform="translate(215.924188, 57.251978)"><g><path d="M 10.375 -23.875 C 12.914062 -23.875 15.140625 -23.382812 17.046875 -22.40625 C 18.960938 -21.4375 20.441406 -20.039062 21.484375 -18.21875 C 22.535156 -16.40625 23.0625 -14.285156 23.0625 -11.859375 C 23.0625 -9.429688 22.535156 -7.320312 21.484375 -5.53125 C 20.441406 -3.75 18.960938 -2.378906 17.046875 -1.421875 C 15.140625 -0.472656 12.914062 0 10.375 0 L 2.578125 0 L 2.578125 -23.875 Z M 10.375 -3.203125 C 13.164062 -3.203125 15.304688 -3.957031 16.796875 -5.46875 C 18.285156 -6.976562 19.03125 -9.109375 19.03125 -11.859375 C 19.03125 -14.628906 18.285156 -16.789062 16.796875 -18.34375 C 15.304688 -19.90625 13.164062 -20.6875 10.375 -20.6875 L 6.5 -20.6875 L 6.5 -3.203125 Z M 10.375 -3.203125 "/></g></g></g><g fill="#f4f6fc" fill-opacity="1"><g transform="translate(242.486432, 57.251978)"><g><path d="M 19.921875 -9.9375 C 19.921875 -9.21875 19.878906 -8.570312 19.796875 -8 L 5.328125 -8 C 5.441406 -6.488281 6 -5.273438 7 -4.359375 C 8.007812 -3.441406 9.25 -2.984375 10.71875 -2.984375 C 12.820312 -2.984375 14.3125 -3.867188 15.1875 -5.640625 L 19.40625 -5.640625 C 18.832031 -3.898438 17.796875 -2.472656 16.296875 -1.359375 C 14.796875 -0.242188 12.9375 0.3125 10.71875 0.3125 C 8.90625 0.3125 7.28125 -0.09375 5.84375 -0.90625 C 4.414062 -1.71875 3.296875 -2.863281 2.484375 -4.34375 C 1.671875 -5.820312 1.265625 -7.535156 1.265625 -9.484375 C 1.265625 -11.429688 1.660156 -13.144531 2.453125 -14.625 C 3.242188 -16.101562 4.351562 -17.238281 5.78125 -18.03125 C 7.21875 -18.832031 8.863281 -19.234375 10.71875 -19.234375 C 12.507812 -19.234375 14.101562 -18.84375 15.5 -18.0625 C 16.894531 -17.289062 17.976562 -16.195312 18.75 -14.78125 C 19.53125 -13.375 19.921875 -11.757812 19.921875 -9.9375 Z M 15.84375 -11.171875 C 15.820312 -12.609375 15.304688 -13.757812 14.296875 -14.625 C 13.285156 -15.5 12.035156 -15.9375 10.546875 -15.9375 C 9.191406 -15.9375 8.035156 -15.503906 7.078125 -14.640625 C 6.117188 -13.785156 5.546875 -12.628906 5.359375 -11.171875 Z M 15.84375 -11.171875 "/></g></g></g><g fill="#f4f6fc" fill-opacity="1"><g transform="translate(265.88732, 57.251978)"><g><path d="M 9.890625 -3.5 L 15.25 -18.9375 L 19.40625 -18.9375 L 12.203125 0 L 7.53125 0 L 0.34375 -18.9375 L 4.53125 -18.9375 Z M 9.890625 -3.5 "/></g></g></g><g fill="#f4f6fc" fill-opacity="1"><g transform="translate(130.528302, 82.942212)"><g><path d="M 10.15625 -9.21875 C 10.15625 -8.132812 9.785156 -7.234375 9.046875 -6.515625 C 8.304688 -5.796875 7.171875 -5.4375 5.640625 -5.4375 L 3.140625 -5.4375 L 3.140625 0 L 1.4375 0 L 1.4375 -13.03125 L 5.640625 -13.03125 C 7.117188 -13.03125 8.238281 -12.675781 9 -11.96875 C 9.769531 -11.257812 10.15625 -10.34375 10.15625 -9.21875 Z M 5.640625 -6.84375 C 6.585938 -6.84375 7.285156 -7.046875 7.734375 -7.453125 C 8.191406 -7.867188 8.421875 -8.457031 8.421875 -9.21875 C 8.421875 -10.832031 7.492188 -11.640625 5.640625 -11.640625 L 3.140625 -11.640625 L 3.140625 -6.84375 Z M 5.640625 -6.84375 "/></g></g></g><g fill="#f4f6fc" fill-opacity="1"><g transform="translate(142.105479, 82.942212)"><g><path d="M 5.90625 0.171875 C 4.945312 0.171875 4.078125 -0.046875 3.296875 -0.484375 C 2.515625 -0.921875 1.898438 -1.539062 1.453125 -2.34375 C 1.015625 -3.144531 0.796875 -4.078125 0.796875 -5.140625 C 0.796875 -6.191406 1.023438 -7.117188 1.484375 -7.921875 C 1.941406 -8.722656 2.5625 -9.335938 3.34375 -9.765625 C 4.132812 -10.203125 5.015625 -10.421875 5.984375 -10.421875 C 6.953125 -10.421875 7.828125 -10.203125 8.609375 -9.765625 C 9.398438 -9.335938 10.023438 -8.722656 10.484375 -7.921875 C 10.941406 -7.128906 11.171875 -6.203125 11.171875 -5.140625 C 11.171875 -4.078125 10.9375 -3.144531 10.46875 -2.34375 C 10 -1.539062 9.363281 -0.921875 8.5625 -0.484375 C 7.769531 -0.046875 6.882812 0.171875 5.90625 0.171875 Z M 5.90625 -1.328125 C 6.519531 -1.328125 7.09375 -1.46875 7.625 -1.75 C 8.164062 -2.039062 8.597656 -2.472656 8.921875 -3.046875 C 9.253906 -3.617188 9.421875 -4.316406 9.421875 -5.140625 C 9.421875 -5.960938 9.257812 -6.660156 8.9375 -7.234375 C 8.613281 -7.804688 8.1875 -8.234375 7.65625 -8.515625 C 7.132812 -8.796875 6.570312 -8.9375 5.96875 -8.9375 C 5.34375 -8.9375 4.769531 -8.796875 4.25 -8.515625 C 3.738281 -8.234375 3.328125 -7.804688 3.015625 -7.234375 C 2.703125 -6.660156 2.546875 -5.960938 2.546875 -5.140625 C 2.546875 -4.304688 2.695312 -3.601562 3 -3.03125 C 3.300781 -2.457031 3.707031 -2.03125 4.21875 -1.75 C 4.738281 -1.46875 5.300781 -1.328125 5.90625 -1.328125 Z M 5.90625 -1.328125 "/></g></g></g><g fill="#f4f6fc" fill-opacity="1"><g transform="translate(154.823514, 82.942212)"><g><path d="M 3.140625 -8.578125 C 3.441406 -9.171875 3.867188 -9.628906 4.421875 -9.953125 C 4.972656 -10.273438 5.648438 -10.4375 6.453125 -10.4375 L 6.453125 -8.671875 L 6 -8.671875 C 4.09375 -8.671875 3.140625 -7.640625 3.140625 -5.578125 L 3.140625 0 L 1.4375 0 L 1.4375 -10.25 L 3.140625 -10.25 Z M 3.140625 -8.578125 "/></g></g></g><g fill="#f4f6fc" fill-opacity="1"><g transform="translate(162.547985, 82.942212)"><g><path d="M 3.515625 -8.84375 L 3.515625 -2.8125 C 3.515625 -2.3125 3.617188 -1.957031 3.828125 -1.75 C 4.046875 -1.539062 4.414062 -1.4375 4.9375 -1.4375 L 6.1875 -1.4375 L 6.1875 0 L 4.65625 0 C 3.707031 0 2.992188 -0.21875 2.515625 -0.65625 C 2.046875 -1.09375 1.8125 -1.8125 1.8125 -2.8125 L 1.8125 -8.84375 L 0.484375 -8.84375 L 0.484375 -10.25 L 1.8125 -10.25 L 1.8125 -12.828125 L 3.515625 -12.828125 L 3.515625 -10.25 L 6.1875 -10.25 L 6.1875 -8.84375 Z M 3.515625 -8.84375 "/></g></g></g><g fill="#f4f6fc" fill-opacity="1"><g transform="translate(170.104132, 82.942212)"><g><path d="M 5.609375 -8.84375 L 3.453125 -8.84375 L 3.453125 0 L 1.765625 0 L 1.765625 -8.84375 L 0.4375 -8.84375 L 0.4375 -10.25 L 1.765625 -10.25 L 1.765625 -10.984375 C 1.765625 -12.128906 2.054688 -12.96875 2.640625 -13.5 C 3.234375 -14.03125 4.1875 -14.296875 5.5 -14.296875 L 5.5 -12.875 C 4.75 -12.875 4.21875 -12.722656 3.90625 -12.421875 C 3.601562 -12.128906 3.453125 -11.648438 3.453125 -10.984375 L 3.453125 -10.25 L 5.609375 -10.25 Z M 5.609375 -8.84375 "/></g></g></g><g fill="#f4f6fc" fill-opacity="1"><g transform="translate(177.005691, 82.942212)"><g><path d="M 5.90625 0.171875 C 4.945312 0.171875 4.078125 -0.046875 3.296875 -0.484375 C 2.515625 -0.921875 1.898438 -1.539062 1.453125 -2.34375 C 1.015625 -3.144531 0.796875 -4.078125 0.796875 -5.140625 C 0.796875 -6.191406 1.023438 -7.117188 1.484375 -7.921875 C 1.941406 -8.722656 2.5625 -9.335938 3.34375 -9.765625 C 4.132812 -10.203125 5.015625 -10.421875 5.984375 -10.421875 C 6.953125 -10.421875 7.828125 -10.203125 8.609375 -9.765625 C 9.398438 -9.335938 10.023438 -8.722656 10.484375 -7.921875 C 10.941406 -7.128906 11.171875 -6.203125 11.171875 -5.140625 C 11.171875 -4.078125 10.9375 -3.144531 10.46875 -2.34375 C 10 -1.539062 9.363281 -0.921875 8.5625 -0.484375 C 7.769531 -0.046875 6.882812 0.171875 5.90625 0.171875 Z M 5.90625 -1.328125 C 6.519531 -1.328125 7.09375 -1.46875 7.625 -1.75 C 8.164062 -2.039062 8.597656 -2.472656 8.921875 -3.046875 C 9.253906 -3.617188 9.421875 -4.316406 9.421875 -5.140625 C 9.421875 -5.960938 9.257812 -6.660156 8.9375 -7.234375 C 8.613281 -7.804688 8.1875 -8.234375 7.65625 -8.515625 C 7.132812 -8.796875 6.570312 -8.9375 5.96875 -8.9375 C 5.34375 -8.9375 4.769531 -8.796875 4.25 -8.515625 C 3.738281 -8.234375 3.328125 -7.804688 3.015625 -7.234375 C 2.703125 -6.660156 2.546875 -5.960938 2.546875 -5.140625 C 2.546875 -4.304688 2.695312 -3.601562 3 -3.03125 C 3.300781 -2.457031 3.707031 -2.03125 4.21875 -1.75 C 4.738281 -1.46875 5.300781 -1.328125 5.90625 -1.328125 Z M 5.90625 -1.328125 "/></g></g></g><g fill="#f4f6fc" fill-opacity="1"><g transform="translate(189.723724, 82.942212)"><g><path d="M 3.140625 -13.84375 L 3.140625 0 L 1.4375 0 L 1.4375 -13.84375 Z M 3.140625 -13.84375 "/></g></g></g><g fill="#f4f6fc" fill-opacity="1"><g transform="translate(195.072979, 82.942212)"><g><path d="M 2.3125 -11.90625 C 1.988281 -11.90625 1.710938 -12.019531 1.484375 -12.25 C 1.265625 -12.476562 1.15625 -12.753906 1.15625 -13.078125 C 1.15625 -13.398438 1.265625 -13.671875 1.484375 -13.890625 C 1.710938 -14.117188 1.988281 -14.234375 2.3125 -14.234375 C 2.625 -14.234375 2.890625 -14.117188 3.109375 -13.890625 C 3.328125 -13.671875 3.4375 -13.398438 3.4375 -13.078125 C 3.4375 -12.753906 3.328125 -12.476562 3.109375 -12.25 C 2.890625 -12.019531 2.625 -11.90625 2.3125 -11.90625 Z M 3.140625 -10.25 L 3.140625 0 L 1.4375 0 L 1.4375 -10.25 Z M 3.140625 -10.25 "/></g></g></g><g fill="#f4f6fc" fill-opacity="1"><g transform="translate(200.422234, 82.942212)"><g><path d="M 5.90625 0.171875 C 4.945312 0.171875 4.078125 -0.046875 3.296875 -0.484375 C 2.515625 -0.921875 1.898438 -1.539062 1.453125 -2.34375 C 1.015625 -3.144531 0.796875 -4.078125 0.796875 -5.140625 C 0.796875 -6.191406 1.023438 -7.117188 1.484375 -7.921875 C 1.941406 -8.722656 2.5625 -9.335938 3.34375 -9.765625 C 4.132812 -10.203125 5.015625 -10.421875 5.984375 -10.421875 C 6.953125 -10.421875 7.828125 -10.203125 8.609375 -9.765625 C 9.398438 -9.335938 10.023438 -8.722656 10.484375 -7.921875 C 10.941406 -7.128906 11.171875 -6.203125 11.171875 -5.140625 C 11.171875 -4.078125 10.9375 -3.144531 10.46875 -2.34375 C 10 -1.539062 9.363281 -0.921875 8.5625 -0.484375 C 7.769531 -0.046875 6.882812 0.171875 5.90625 0.171875 Z M 5.90625 -1.328125 C 6.519531 -1.328125 7.09375 -1.46875 7.625 -1.75 C 8.164062 -2.039062 8.597656 -2.472656 8.921875 -3.046875 C 9.253906 -3.617188 9.421875 -4.316406 9.421875 -5.140625 C 9.421875 -5.960938 9.257812 -6.660156 8.9375 -7.234375 C 8.613281 -7.804688 8.1875 -8.234375 7.65625 -8.515625 C 7.132812 -8.796875 6.570312 -8.9375 5.96875 -8.9375 C 5.34375 -8.9375 4.769531 -8.796875 4.25 -8.515625 C 3.738281 -8.234375 3.328125 -7.804688 3.015625 -7.234375 C 2.703125 -6.660156 2.546875 -5.960938 2.546875 -5.140625 C 2.546875 -4.304688 2.695312 -3.601562 3 -3.03125 C 3.300781 -2.457031 3.707031 -2.03125 4.21875 -1.75 C 4.738281 -1.46875 5.300781 -1.328125 5.90625 -1.328125 Z M 5.90625 -1.328125 "/></g></g></g></svg>